<?xml version="1.0" encoding="UTF-8" standalone="no"?>
<!-- Created with Inkscape (http://www.inkscape.org/) -->

<svg
   width="297.59015mm"
   height="149.30455mm"
   viewBox="0 0 297.59015 149.30455"
   version="1.1"
   id="svg5"
   xml:space="preserve"
   sodipodi:docname="cars_picto.svg"
   inkscape:version="1.2.2 (732a01da63, 2022-12-09)"
   inkscape:export-filename="cars_picto.png"
   inkscape:export-xdpi="96"
   inkscape:export-ydpi="96"
   xmlns:inkscape="http://www.inkscape.org/namespaces/inkscape"
   xmlns:sodipodi="http://sodipodi.sourceforge.net/DTD/sodipodi-0.dtd"
   xmlns:xlink="http://www.w3.org/1999/xlink"
   xmlns="http://www.w3.org/2000/svg"
   xmlns:svg="http://www.w3.org/2000/svg"><sodipodi:namedview
     id="namedview7"
     pagecolor="#ffffff"
     bordercolor="#000000"
     borderopacity="0.25"
     inkscape:showpageshadow="2"
     inkscape:pageopacity="0.0"
     inkscape:pagecheckerboard="0"
     inkscape:deskcolor="#d1d1d1"
     inkscape:document-units="mm"
     showgrid="false"
     inkscape:zoom="0.55281048"
     inkscape:cx="374.45021"
     inkscape:cy="142.90612"
     inkscape:window-width="1920"
     inkscape:window-height="974"
     inkscape:window-x="-11"
     inkscape:window-y="-11"
     inkscape:window-maximized="1"
     inkscape:current-layer="layer1"
     showguides="true" /><defs
     id="defs2"><linearGradient
   inkscape:collect="always"
   id="linearGradient2695"><stop
     style="stop-color:#2598d0;stop-opacity:1;"
     offset="0"
     id="stop2691" /><stop
     style="stop-color:#2598d0;stop-opacity:0;"
     offset="1"
     id="stop2693" /></linearGradient><linearGradient
   inkscape:collect="always"
   id="linearGradient2687"><stop
     style="stop-color:#98b6e0;stop-opacity:1;"
     offset="0"
     id="stop2683" /><stop
     style="stop-color:#98b6e0;stop-opacity:0;"
     offset="1"
     id="stop2685" /></linearGradient><linearGradient
   inkscape:collect="always"
   id="linearGradient2679"><stop
     style="stop-color:#2598d0;stop-opacity:1;"
     offset="0"
     id="stop2675" /><stop
     style="stop-color:#2598d0;stop-opacity:0;"
     offset="1"
     id="stop2677" /></linearGradient><linearGradient
   inkscape:collect="always"
   id="linearGradient2671"><stop
     style="stop-color:#98b6e0;stop-opacity:1;"
     offset="0"
     id="stop2667" /><stop
     style="stop-color:#98b6e0;stop-opacity:0;"
     offset="1"
     id="stop2669" /></linearGradient><linearGradient
   inkscape:collect="always"
   id="linearGradient2663"><stop
     style="stop-color:#2598d0;stop-opacity:1;"
     offset="0"
     id="stop2659" /><stop
     style="stop-color:#2598d0;stop-opacity:0;"
     offset="1"
     id="stop2661" /></linearGradient><linearGradient
   inkscape:collect="always"
   id="linearGradient2655"><stop
     style="stop-color:#2598d0;stop-opacity:1;"
     offset="0"
     id="stop2651" /><stop
     style="stop-color:#2598d0;stop-opacity:0;"
     offset="1"
     id="stop2653" /></linearGradient><linearGradient
   inkscape:collect="always"
   id="linearGradient2647"><stop
     style="stop-color:#98b6e0;stop-opacity:1;"
     offset="0"
     id="stop2643" /><stop
     style="stop-color:#98b6e0;stop-opacity:0;"
     offset="1"
     id="stop2645" /></linearGradient><linearGradient
   inkscape:collect="always"
   id="linearGradient2639"><stop
     style="stop-color:#98b6e0;stop-opacity:1;"
     offset="0"
     id="stop2635" /><stop
     style="stop-color:#98b6e0;stop-opacity:0;"
     offset="1"
     id="stop2637" /></linearGradient><linearGradient
   inkscape:collect="always"
   id="linearGradient35926"><stop
     style="stop-color:#98b6e0;stop-opacity:1;"
     offset="0"
     id="stop35922" /><stop
     style="stop-color:#5b80aa;stop-opacity:1;"
     offset="0.31921771"
     id="stop39862" /><stop
     style="stop-color:#1b4871;stop-opacity:1;"
     offset="1"
     id="stop35924" /></linearGradient><inkscape:path-effect
   effect="powerclip"
   id="path-effect35155"
   is_visible="true"
   lpeversion="1"
   inverse="true"
   flatten="false"
   hide_clip="false"
   message="Utilise la règle de remplissage « fill-rule: evenodd » de la boîte de dialogue &lt;b&gt;Fond et contour&lt;/b&gt; en l'absence de résultat de mise à plat après une conversion en chemin." /><linearGradient
   inkscape:collect="always"
   id="linearGradient34251"><stop
     style="stop-color:#1b4871;stop-opacity:1;"
     offset="0"
     id="stop34249" /><stop
     style="stop-color:#2f5a83;stop-opacity:1;"
     offset="0.51791531"
     id="stop39866" /><stop
     style="stop-color:#98b6e0;stop-opacity:1;"
     offset="1"
     id="stop34247" /></linearGradient><linearGradient
   inkscape:collect="always"
   id="linearGradient30722"><stop
     style="stop-color:#2598cf;stop-opacity:1;"
     offset="0"
     id="stop30718" /><stop
     style="stop-color:#2598cf;stop-opacity:0.37781629;"
     offset="1"
     id="stop30720" /></linearGradient><linearGradient
   id="linearGradient27374"
   inkscape:swatch="solid"><stop
     style="stop-color:#1b4871;stop-opacity:1;"
     offset="0"
     id="stop27372" /></linearGradient><linearGradient
   inkscape:collect="always"
   id="linearGradient22291"><stop
     style="stop-color:#2598cf;stop-opacity:1;"
     offset="0"
     id="stop22364" /><stop
     style="stop-color:#98b6e0;stop-opacity:1;"
     offset="1"
     id="stop22366" /></linearGradient><inkscape:path-effect
   effect="fillet_chamfer"
   id="path-effect4576"
   is_visible="true"
   lpeversion="1"
   nodesatellites_param="F,0,0,1,0,35.565099,0,1 @ IF,0,0,1,0,0,0,1 @ F,0,1,1,0,35.565099,0,1 @ F,0,1,1,0,35.565099,0,1"
   unit="px"
   method="auto"
   mode="F"
   radius="0"
   chamfer_steps="1"
   flexible="false"
   use_knot_distance="true"
   apply_no_radius="true"
   apply_with_radius="true"
   only_selected="false"
   hide_knots="false" /><clipPath
   clipPathUnits="userSpaceOnUse"
   id="clipEmfPath1"><path
     d="M 0,0 H 105.01543 V 48.468661 H 0 Z"
     id="path19249" /></clipPath><pattern
   id="EMFhbasepattern"
   patternUnits="userSpaceOnUse"
   width="6"
   height="6"
   x="0"
   y="0" /><linearGradient
   inkscape:collect="always"
   xlink:href="#linearGradient22291"
   id="linearGradient22293"
   x1="-452.27417"
   y1="348.03397"
   x2="-218.31216"
   y2="348.03397"
   gradientUnits="userSpaceOnUse"
   gradientTransform="matrix(0.55851569,0,0,0.55851569,-247.81459,-251.34394)" /><linearGradient
   inkscape:collect="always"
   xlink:href="#linearGradient30722"
   id="linearGradient30726"
   x1="-682.95728"
   y1="346.16"
   x2="-484.70685"
   y2="346.16"
   gradientUnits="userSpaceOnUse"
   gradientTransform="matrix(0.55851569,0,0,0.55851569,-247.81459,-251.34394)" /><linearGradient
   inkscape:collect="always"
   xlink:href="#linearGradient30710"
   id="linearGradient33224"
   gradientUnits="userSpaceOnUse"
   x1="-529.34973"
   y1="286.43271"
   x2="-637.96423"
   y2="400.07474"
   gradientTransform="matrix(0.55851569,0,0,0.55851569,-247.81444,-249.62939)" /><linearGradient
   inkscape:collect="always"
   id="linearGradient30710"><stop
     style="stop-color:#2598cf;stop-opacity:0.12651646;"
     offset="0"
     id="stop30708" /><stop
     style="stop-color:#2a99d0;stop-opacity:0.27556327;"
     offset="0"
     id="stop30706" /></linearGradient><linearGradient
   inkscape:collect="always"
   xlink:href="#linearGradient34251"
   id="linearGradient34253"
   x1="-929.60193"
   y1="373.00644"
   x2="-917.18445"
   y2="386.17087"
   gradientUnits="userSpaceOnUse"
   gradientTransform="matrix(0.55851569,0,0,0.55851569,-51.515387,-263.32625)" /><clipPath
   clipPathUnits="userSpaceOnUse"
   id="clipPath35151"><path
     id="lpe_path-effect35155"
     style="fill:#ffffff;fill-opacity:1;stroke:#1b4871;stroke-width:0.460999;stroke-dasharray:none;stroke-opacity:1;stop-color:#000000"
     class="powerclip"
     d="m -1018.9628,322.88541 h 167.34274 v 89.45553 h -167.34274 z m 5.1797,41.84581 15.87036,0.19328" /></clipPath><linearGradient
   inkscape:collect="always"
   xlink:href="#linearGradient35926"
   id="linearGradient35928"
   x1="-956.22595"
   y1="346.37485"
   x2="-940.89453"
   y2="360.98727"
   gradientUnits="userSpaceOnUse"
   gradientTransform="matrix(0.55851569,0,0,0.55851569,-51.515387,-263.32625)" /><clipPath
   clipPathUnits="userSpaceOnUse"
   id="clipEmfPath1-2"><path
     d="M 0,0 H 105.01543 V 48.468661 H 0 Z"
     id="path38115" /></clipPath><pattern
   id="EMFhbasepattern-9"
   patternUnits="userSpaceOnUse"
   width="6"
   height="6"
   x="0"
   y="0" /><linearGradient
   inkscape:collect="always"
   xlink:href="#linearGradient2639"
   id="linearGradient2641"
   x1="-617.91284"
   y1="-30.999043"
   x2="-607.00415"
   y2="-38.263279"
   gradientUnits="userSpaceOnUse" /><linearGradient
   inkscape:collect="always"
   xlink:href="#linearGradient2647"
   id="linearGradient2649"
   x1="-605.50714"
   y1="-17.776129"
   x2="-593.37079"
   y2="-29.398947"
   gradientUnits="userSpaceOnUse"
   gradientTransform="matrix(1.5154274,0,0,1.5154274,308.27927,12.816487)" /><linearGradient
   inkscape:collect="always"
   xlink:href="#linearGradient2655"
   id="linearGradient2657"
   x1="-607.72571"
   y1="-15.787739"
   x2="-595.71222"
   y2="-28.523821"
   gradientUnits="userSpaceOnUse"
   gradientTransform="matrix(1.5154274,0,0,1.5154274,308.27927,12.816487)" /><linearGradient
   inkscape:collect="always"
   xlink:href="#linearGradient2663"
   id="linearGradient2665"
   x1="-620.38647"
   y1="-29.355551"
   x2="-604.17493"
   y2="-40.625759"
   gradientUnits="userSpaceOnUse" /><linearGradient
   inkscape:collect="always"
   xlink:href="#linearGradient2671"
   id="linearGradient2673"
   x1="-536.12433"
   y1="-86.221817"
   x2="-525.21027"
   y2="-95.340973"
   gradientUnits="userSpaceOnUse" /><linearGradient
   inkscape:collect="always"
   xlink:href="#linearGradient2679"
   id="linearGradient2681"
   x1="-532.35352"
   y1="-89.114647"
   x2="-525.21027"
   y2="-96.648979"
   gradientUnits="userSpaceOnUse" /><linearGradient
   inkscape:collect="always"
   xlink:href="#linearGradient2687"
   id="linearGradient2689"
   x1="-548.8869"
   y1="-97.607117"
   x2="-538.0274"
   y2="-108.06313"
   gradientUnits="userSpaceOnUse"
   gradientTransform="matrix(1.3384254,0,0,1.3384254,187.23678,31.887445)" /><linearGradient
   inkscape:collect="always"
   xlink:href="#linearGradient2695"
   id="linearGradient2697"
   x1="-545.83087"
   y1="-101.24695"
   x2="-538.0274"
   y2="-108.06313"
   gradientUnits="userSpaceOnUse"
   gradientTransform="matrix(1.3384254,0,0,1.3384254,187.23678,31.887445)" />
	 
	 
	</defs><g
     inkscape:label="Calque 1"
     inkscape:groupmode="layer"
     id="layer1"
     transform="translate(649.21191,132.6608)">
<g
   id="orbit"><path
   id="path18059-9"
   style="color:#000000;fill:url(#linearGradient30726);fill-opacity:1;stroke-width:0.558516;-inkscape-stroke:none"
   d="m -573.89396,-112.74699 c -30.50116,0 -55.36299,24.528845 -55.36299,54.738992 0,7.196531 1.41368,14.069301 3.97547,20.366247 l 6.93296,-4.497576 c -1.81011,-4.952398 -2.79789,-10.295047 -2.79789,-15.868671 0,-25.772896 21.08125,-46.628452 47.25245,-46.628452 5.11801,0 10.03993,0.80067 14.64896,2.27664 l 0.28718,-0.29237 5.23933,-6.33061 c -6.25603,-2.42912 -13.06216,-3.7642 -20.17547,-3.7642 z m 49.8281,30.89226 -6.6022,4.958217 c 2.58717,5.772891 4.0254,12.16254 4.0254,18.888515 0,25.772885 -21.0801,46.627297 -47.2513,46.627297 -6.25949,0 -12.22632,-1.195693 -17.68467,-3.363594 l -0.37405,0.381561 -6.58114,5.3622873 c 7.42738,3.6653318 15.79546,5.7311473 24.63986,5.7311473 30.50117,0 55.36299,-24.5285566 55.36299,-54.7386986 0,-8.546022 -1.99096,-16.63668 -5.53489,-23.846732 z"
   inkscape:label="orbit" />
<animateTransform
   attributeName="transform"
   type="rotate"
   from="0 -573.89396,-58.008145"
   to="360 -573.89396,-58.008145"
   dur="10s"
   repeatCount="indefinite" /></g>


<g
   aria-label="cars"
   id="text19267"
   style="font-size:78.8127px;font-family:'CNES Sans';-inkscape-font-specification:'CNES Sans, Normal';text-align:center;text-anchor:middle;fill:url(#linearGradient22293);stroke-width:8.41683;stop-color:#000000"
   inkscape:label="cars"><path
     d="m -483.94497,-37.53417 c 7.25077,0 12.53122,-3.861822 14.8956,-10.482089 l -6.14739,-1.655066 c -1.33981,3.861822 -4.41351,6.14739 -8.74821,6.14739 -6.2262,0 -9.37871,-4.9652 -9.37871,-13.476971 0,-8.432959 3.15251,-13.398159 9.37871,-13.398159 4.09826,0 7.17196,2.285568 8.27534,6.14739 l 6.06857,-1.655066 c -1.8915,-6.541454 -7.01433,-10.482089 -14.34391,-10.482089 -10.48209,0 -16.47185,6.935517 -16.47185,19.387924 0,12.531219 5.98976,19.466736 16.47185,19.466736 z"
     id="path367" /><path
     d="m -452.34105,-37.53417 c 5.75333,0 9.77278,-2.364381 12.05835,-5.516889 l 1.73388,4.886388 6.62026,-0.945753 -2.04913,-8.275333 v -16.708292 c 0,-9.142273 -6.62026,-12.294781 -13.39816,-12.294781 -7.64483,0 -12.68884,3.704197 -14.18628,10.639714 l 6.14739,1.103378 c 0.78813,-4.334698 4.09826,-5.910952 7.32958,-5.910952 3.46776,0 7.01433,1.339815 7.01433,6.541454 v 3.783009 l -6.46264,0.394064 c -9.37871,0.551688 -15.5261,5.122825 -15.5261,12.137155 0,6.777892 5.04401,10.166838 10.71852,10.166838 z m 1.97032,-5.595701 c -2.99488,0 -5.67451,-1.73388 -5.67451,-5.280451 0,-3.546572 2.99488,-6.383829 9.06346,-6.777892 l 5.91095,-0.394064 v 4.019448 c 0,4.807574 -4.17707,8.432959 -9.2999,8.432959 z"
     id="path369" /><path
     d="m -423.96848,-38.558735 h 6.93551 v -20.097238 c 0,-6.226203 3.86183,-11.427841 9.2999,-11.427841 1.81269,0 3.62539,0.630501 5.35927,1.655066 l 0.94575,-6.699079 c -1.97032,-0.788127 -4.01945,-1.261003 -5.75333,-1.261003 -4.9652,0 -8.43296,2.758444 -10.40328,6.935517 l -1.261,-6.383828 -6.77789,0.709314 1.65507,8.511771 z"
     id="path371" /><path
     d="m -384.01048,-37.53417 c 7.09314,0 14.26509,-3.625384 14.26509,-10.876152 0,-13.398159 -20.09723,-9.063461 -20.09723,-17.102356 0,-3.388946 2.99488,-5.516889 6.62026,-5.516889 3.46776,0 6.46264,1.73388 7.88127,4.64995 l 5.20164,-2.600819 c -2.12794,-4.64995 -7.17195,-7.408394 -13.55578,-7.408394 -7.80246,0 -13.39816,4.649949 -13.39816,11.033778 0,13.16172 20.17605,9.142273 20.17605,17.102355 0,3.625384 -3.54657,5.359264 -7.01433,5.359264 -3.62539,0 -8.0389,-1.73388 -9.14227,-5.674515 l -5.20164,2.522007 c 1.81269,5.753327 8.11771,8.511771 14.2651,8.511771 z"
     id="path373" /></g><path
   id="path33202"
   style="fill:url(#linearGradient33224);fill-opacity:1;stroke:none;stroke-width:0.257476;stroke-dasharray:none;stop-color:#000000"
   d="m -573.89397,-101.65341 c -24.4014,4e-5 -44.1826,19.540674 -44.18265,43.645267 5e-5,24.104593 19.78125,43.645225 44.18265,43.645264 24.40141,-2.8e-5 44.18265,-19.54066 44.18268,-43.645264 -3e-5,-24.104605 -19.78127,-43.645237 -44.18268,-43.645267 z m -22.58055,21.456656 h 2.9e-4 c 0.0867,0 0.17329,5.59e-4 0.26005,0.0017 5.58927,0.07001 10.92827,2.533438 14.83454,6.845218 l 5.13591,7.020475 -5.38831,6.374117 1.47178,1.624336 13.75197,-15.018928 c 8.07983,-8.918468 21.44989,-9.10027 29.74527,-0.431196 8.29697,8.069552 9.00418,22.001888 1.54904,30.990963 l -0.0649,0.07793 -0.0687,0.0759 c -8.10011,8.940858 -21.52102,9.107989 -29.81167,0.372608 l -8.33917,-8.786508 6.36294,-6.654446 -0.50362,-0.724417 -15.18866,16.165376 c -8.29061,8.73566 -21.71297,8.568474 -29.8131,-0.372608 l -0.0675,-0.07591 -0.0661,-0.07793 c -7.45627,-8.990578 -6.74684,-22.925846 1.55393,-30.994717 3.92888,-4.103789 9.18097,-6.407454 14.64607,-6.412006 z m -14.7139,6.470025 -0.0193,0.0196 0.0156,-0.01676 c 0.002,-5.59e-4 0.003,-0.0017 0.004,-0.0028 z"
   sodipodi:nodetypes="ssssscscccccccccscccccccccscccccc"
   inkscape:label="earth" /><g
   id="g382"
   inkscape:label="road"><path
     id="path33204"
     style="color:#000000;fill:url(#linearGradient35928);fill-opacity:1;stroke:none;stroke-width:0.48623;stroke-opacity:1;-inkscape-stroke:none"
     d="m -596.46672,-80.197104 c -5.46507,0.0045 -10.71756,2.308267 -14.64637,6.412006 -3.90743,3.798253 -6.13256,8.896529 -6.61579,14.166963 -0.14074,1.535376 -0.13248,3.085229 0.024,4.621974 h 8.91639 c -0.28367,-1.49179 -0.30869,-3.022302 -0.0768,-4.51403 0.41695,-2.681942 1.66108,-5.237866 3.71022,-7.214375 l 0.0716,-0.06927 0.0886,-0.09351 v -0.0022 c 2.28351,-2.406085 5.34269,-3.749729 8.53106,-3.752365 0.0506,-4.5e-5 0.10143,1.7e-5 0.1521,0.0011 3.243,0.04066 6.33418,1.467048 8.60062,3.968829 l 7.04321,7.774583 6.26308,-6.760368 -6.96904,-7.692041 c -3.90627,-4.311741 -9.24532,-6.775208 -14.83455,-6.845224 -0.0867,-0.0011 -0.17338,-0.0017 -0.26004,-0.0017 z m 7.02734,5.32419 c 0.34082,-0.0059 0.66845,0.08402 0.84421,0.274768 1.33204,1.152949 1.89976,1.643477 2.72776,2.359768 0.46003,0.397976 0.32915,1.359661 -0.0644,1.823509 -0.38445,0.453157 -1.31752,0.762564 -1.7476,0.352406 -0.78098,-0.74487 -1.74014,-1.659098 -2.65733,-2.534382 -0.45756,-0.436647 -0.53109,-1.421824 -0.11054,-1.894223 0.21844,-0.245367 0.62159,-0.37516 1.00786,-0.381846 z m -21.74615,1.148426 c -3.3e-4,6.7e-5 0,2.4e-4 0,2.9e-4 l -0.0156,0.01676 0.0173,-0.01703 c -2.3e-4,7.8e-5 -5.1e-4,-6.7e-5 0,0 z m 28.09119,4.434659 c 0.34083,-0.0059 0.66846,0.08402 0.84422,0.274768 1.33204,1.152955 1.89976,1.643477 2.72776,2.359768 0.46002,0.397975 0.32915,1.359946 -0.0644,1.823793 -0.38449,0.453197 -1.31781,0.762609 -1.74788,0.352407 -0.78098,-0.74487 -1.74014,-1.659384 -2.65734,-2.534667 -0.45756,-0.436648 -0.53108,-1.421819 -0.11054,-1.894223 0.21845,-0.245378 0.62194,-0.375144 1.00815,-0.381846 z"
     inkscape:label="roadul" /><path
     id="path35918"
     style="color:#000000;fill:#98b6e0;fill-opacity:1;stroke:none;stroke-width:0.48623;stroke-opacity:1;-inkscape-stroke:none"
     d="m -551.10387,-80.161605 c -5.55835,-0.06276 -11.1311,2.212923 -15.29721,6.811457 l -4.31142,4.759363 -2.97712,3.286234 -0.19627,0.217045 -2.9e-4,-2.91e-4 -2.8e-4,5.59e-4 -6.26654,6.75604 0.002,0.0022 -0.1749,0.184143 -2.98867,3.148565 -5.59809,5.89797 c -4.84158,5.101404 -12.44875,5.022821 -17.20758,-0.147772 -1.39112,-1.705701 -2.29173,-3.77322 -2.6833,-5.832462 l -8.92121,-0.125018 c 0.44721,4.394267 2.13387,8.88761 5.0577,12.413061 l 0.0661,0.07793 0.0675,0.07591 c 8.10004,8.940982 21.52259,9.108224 29.8131,0.372608 l 8.83445,-9.307641 h 2.9e-4 l 3.17311,-3.424489 2.8e-4,-2.91e-4 3.1731,-3.424488 0.007,-0.0084 7.46835,-8.243306 c 2.37693,-2.623594 5.48142,-3.958893 8.59975,-3.997978 3.11832,-0.0391 6.25093,1.21791 8.68374,3.781223 l 0.0113,0.01268 0.0903,0.09265 0.0603,0.05945 c 2.42906,2.342968 3.73226,5.66364 3.86216,8.879741 l 8.81191,0.130313 c -0.14159,-5.829374 -2.40995,-11.882902 -6.71144,-16.066548 -4.01807,-4.199032 -9.2269,-6.321582 -14.44837,-6.380544 z m -11.67357,8.40407 c 0.42149,-0.0056 0.89279,0.176602 1.16199,0.445053 0.42082,0.419685 0.65442,1.374686 0.21098,1.7704 -0.80525,0.718569 -1.79399,1.601046 -2.74017,2.444908 -0.47202,0.420975 -1.45975,0.414932 -1.89681,-0.04211 -0.42735,-0.447003 -0.39369,-1.513651 0.0422,-1.854675 1.25625,-1.235045 1.79079,-1.761754 2.57133,-2.529478 0.16262,-0.159959 0.39762,-0.230762 0.65055,-0.234068 z m -6.28068,7.411497 c 0.42154,-0.0056 0.89308,0.176307 1.16228,0.444763 0.42082,0.419674 0.65412,1.374697 0.21069,1.770405 -0.80519,0.71852 -1.7937,1.601047 -2.73988,2.444908 -0.0819,0.07305 -0.18006,0.132307 -0.28747,0.179519 -0.51156,0.224875 -1.24842,0.156177 -1.60964,-0.221659 -0.42734,-0.447008 -0.39362,-1.513655 0.0422,-1.854679 0.76583,-0.752896 1.11887,-1.100405 1.5675,-1.541811 0.2873,-0.282681 0.69911,-0.687689 1.00382,-0.987372 0.16263,-0.159959 0.39763,-0.230773 0.65056,-0.234074 z m -6.20074,6.717079 c 0.42155,-0.0056 0.8928,0.176301 1.162,0.444762 0.42076,0.419675 0.65412,1.374697 0.21068,1.7704 -0.13756,0.122762 -0.321,0.286312 -0.46814,0.417636 -0.71412,0.637344 -1.4872,1.327586 -2.27173,2.027272 -0.47202,0.42097 -1.45976,0.414938 -1.89682,-0.04211 -0.42729,-0.446958 -0.39363,-1.51365 0.0422,-1.854674 0.0648,-0.06367 0.0714,-0.07043 0.13248,-0.130458 1.12339,-1.104515 1.69854,-1.670867 2.43884,-2.399021 0.16263,-0.159958 0.39763,-0.230471 0.65055,-0.233778 z m -5.97156,5.96579 c 0.42154,-0.0056 0.89279,0.176313 1.16198,0.444769 0.42083,0.41968 0.65414,1.374982 0.2107,1.77069 -0.80525,0.718564 -1.79376,1.601047 -2.73988,2.444908 -0.47202,0.420976 -1.46005,0.415044 -1.89711,-0.04217 -0.42735,-0.447008 -0.39336,-1.513991 0.0425,-1.854964 1.25631,-1.235041 1.79078,-1.761453 2.57132,-2.529189 0.16262,-0.159953 0.39763,-0.230773 0.65055,-0.234073 z m -6.87611,6.671766 c 0.0127,-1.95e-4 0.0255,-2.06e-4 0.0384,0 0.4525,0.0073 0.96563,0.263067 1.22318,0.592541 0.36601,0.468198 0.48038,1.44464 -0.008,1.78281 -0.88749,0.614077 -1.97735,1.368235 -3.02013,2.089329 -0.52021,0.35969 -1.49967,0.232382 -1.87719,-0.275058 -0.36913,-0.496168 -0.20451,-1.550775 0.26986,-1.835629 1.39866,-1.07116 1.99379,-1.527909 2.86283,-2.19381 0.14145,-0.108403 0.32018,-0.157234 0.51144,-0.160183 z"
     sodipodi:nodetypes="sccccccccccccccccccccccccsscccccccssssssccssssssssscsssssssssccssssssssscssssssssscsss"
     inkscape:label="roadurll" /><path
     id="path34225"
     style="color:#000000;fill:url(#linearGradient34253);fill-opacity:1;stroke:none;stroke-width:0.48623;stroke-opacity:1;-inkscape-stroke:none"
     d="m -538.76157,-58.008532 c 0.12474,3.088385 -0.83451,6.231711 -2.89632,8.760832 -4.75869,5.173034 -12.36728,5.251952 -17.2096,0.1498 l -8.16798,-8.606682 -6.36293,6.654446 8.33912,8.786491 c 8.29055,8.735431 21.71186,8.568228 29.81195,-0.372614 l 0.0687,-0.0759 0.0647,-0.07793 c 3.59002,-4.328692 5.29437,-9.803905 5.16285,-15.218441 z m -28.87971,5.36261 c 0.34083,-0.0059 0.66846,0.08373 0.84422,0.274477 1.33203,1.152956 1.89975,1.643489 2.72775,2.359768 0.46003,0.397971 0.32915,1.359947 -0.0644,1.823794 -0.38449,0.453197 -1.31753,0.762603 -1.7476,0.352407 -0.78098,-0.74487 -1.74014,-1.659384 -2.65734,-2.534667 -0.45755,-0.436642 -0.53108,-1.421819 -0.11054,-1.894223 0.21846,-0.245384 0.6216,-0.374876 1.00787,-0.381556 z m 6.07922,5.951946 c 0.34083,-0.0059 0.66847,0.08402 0.84422,0.274762 1.33203,1.15296 1.89978,1.643488 2.72776,2.359767 0.46002,0.397976 0.32915,1.359947 -0.0644,1.823794 -0.38448,0.453197 -1.31781,0.762603 -1.74789,0.352407 -0.78097,-0.74487 -1.74014,-1.659389 -2.65733,-2.534667 -0.45756,-0.436648 -0.53109,-1.421819 -0.11054,-1.894223 0.21845,-0.245378 0.62188,-0.375149 1.00815,-0.38184 z"
     sodipodi:nodetypes="ccccccscsccscssssssscssssss"
     inkscape:label="roadlr" /><path
     style="fill:#98b6e0;fill-opacity:0.7;stroke:none;stroke-width:0.279257;stroke-dasharray:none;stop-color:#000000"
     d="m -588.06814,-44.991399 c -0.20568,-0.0034 -0.39894,0.04457 -0.54982,0.160194 -0.86904,0.665907 -1.46418,1.122639 -2.86283,2.193799 -0.47437,0.284849 -0.63899,1.33946 -0.26986,1.835629 0.37752,0.507439 1.35698,0.634792 1.87719,0.275058 1.04278,-0.721089 2.13263,-1.475253 3.02012,-2.089329 0.48872,-0.338165 0.37439,-1.314562 0.008,-1.78281 -0.25755,-0.329469 -0.77068,-0.585219 -1.22317,-0.592541 z"
     id="path33206"
     inkscape:label="dotted9" /><path
     style="fill:#98b6e0;fill-opacity:0.7;stroke:none;stroke-width:0.279257;stroke-dasharray:none;stop-color:#000000"
     d="m -561.56205,-46.693967 c -0.38627,0.0067 -0.7897,0.136462 -1.00816,0.381841 -0.42054,0.472398 -0.34701,1.457569 0.11054,1.894222 0.9172,0.875273 1.87636,1.789803 2.65734,2.534673 0.43007,0.410191 1.3634,0.100784 1.74789,-0.352412 0.39351,-0.463842 0.52439,-1.425818 0.0644,-1.8238 -0.828,-0.716285 -1.39572,-1.206796 -2.72776,-2.359762 -0.17576,-0.190739 -0.50339,-0.280671 -0.84421,-0.274762 z"
     id="path33208"
     inkscape:label="dotted8" /><path
     style="fill:#98b6e0;fill-opacity:0.4;stroke:none;stroke-width:0.279257;stroke-dasharray:none;stop-color:#000000"
     d="m -581.23763,-51.662863 c -0.25293,0.0034 -0.48793,0.07411 -0.65056,0.234063 -0.78053,0.767735 -1.31501,1.294142 -2.57132,2.529188 -0.43574,0.341029 -0.46978,1.407962 -0.0425,1.854964 0.43706,0.457162 1.4251,0.463116 1.89711,0.04211 0.94618,-0.843861 1.93464,-1.726333 2.73988,-2.444902 0.44344,-0.395714 0.21013,-1.351016 -0.21069,-1.77069 -0.2692,-0.268462 -0.74045,-0.450276 -1.16199,-0.444763 z"
     id="path33210"
     inkscape:label="dotted7" /><path
     style="fill:#98b6e0;fill-opacity:0.45;stroke:none;stroke-width:0.279257;stroke-dasharray:none;stop-color:#000000"
     d="m -567.64128,-52.645907 c -0.38627,0.0067 -0.78941,0.136166 -1.00786,0.38155 -0.42055,0.472404 -0.34702,1.457576 0.11054,1.894217 0.91719,0.875284 1.87636,1.789803 2.65733,2.534673 0.43008,0.410202 1.36312,0.100795 1.7476,-0.352401 0.39352,-0.463847 0.5244,-1.425829 0.0644,-1.823799 -0.828,-0.716291 -1.39572,-1.206808 -2.72776,-2.359763 -0.17576,-0.190744 -0.50339,-0.28038 -0.84422,-0.274477 z"
     id="path33212"
     inkscape:label="dotted6" /><path
     style="fill:#98b6e0;fill-opacity:0.1;stroke:none;stroke-width:0.279257;stroke-dasharray:none;stop-color:#000000"
     d="m -575.26607,-57.62866 c -0.25292,0.0034 -0.48792,0.07382 -0.65054,0.233784 -0.78054,0.76773 -1.31502,1.294421 -2.57133,2.529473 -0.43574,0.341024 -0.46949,1.407671 -0.0421,1.85468 0.43706,0.457161 1.4248,0.46311 1.89681,0.04211 0.94619,-0.843856 1.93464,-1.726339 2.73988,-2.444908 0.44344,-0.395709 0.21013,-1.35072 -0.21069,-1.7704 -0.2692,-0.268456 -0.74044,-0.450276 -1.16199,-0.444763 z"
     id="path33214"
     inkscape:label="dotted5" /><path
     style="fill:#98b6e0;fill-opacity:0.4;stroke:none;stroke-width:0.279257;stroke-dasharray:none;stop-color:#000000"
     d="m -569.06533,-64.345738 c -0.25293,0.0034 -0.48793,0.07411 -0.65055,0.234068 -0.78054,0.767736 -1.31502,1.294137 -2.57133,2.529188 -0.43573,0.341024 -0.46949,1.407667 -0.0421,1.85468 0.43706,0.457162 1.42509,0.46311 1.89711,0.04217 0.94618,-0.843861 1.93463,-1.726333 2.73987,-2.444902 0.44344,-0.395714 0.21014,-1.350731 -0.21069,-1.770406 -0.26919,-0.268461 -0.74073,-0.450275 -1.16227,-0.444762 z"
     id="path33216"
     inkscape:label="dotted4" /><path
     style="fill:#98b6e0;fill-opacity:0.45;stroke:none;stroke-width:0.279257;stroke-dasharray:none;stop-color:#000000"
     d="m -583.10155,-69.289529 c -0.38626,0.0067 -0.7897,0.136462 -1.00815,0.38184 -0.42054,0.472399 -0.34702,1.457576 0.11054,1.894223 0.9172,0.875278 1.87636,1.789797 2.65734,2.534667 0.43007,0.410196 1.36339,0.10079 1.74788,-0.352406 0.39352,-0.463842 0.52439,-1.425818 0.0644,-1.823789 -0.828,-0.716296 -1.39572,-1.206812 -2.72776,-2.359773 -0.17576,-0.190739 -0.50339,-0.280665 -0.84422,-0.274762 z"
     id="path33218"
     inkscape:label="dotted3" /><path
     style="fill:#98b6e0;fill-opacity:0.7;stroke:none;stroke-width:0.279257;stroke-dasharray:none;stop-color:#000000"
     d="m -562.78465,-71.757236 c -0.25293,0.0034 -0.48793,0.07412 -0.65055,0.234069 -0.78054,0.767735 -1.31502,1.294432 -2.57132,2.529478 -0.43574,0.341024 -0.46949,1.407672 -0.0422,1.85468 0.43706,0.457156 1.42479,0.46311 1.89681,0.04211 0.94618,-0.843861 1.93492,-1.726338 2.74017,-2.444908 0.44344,-0.395708 0.20984,-1.35072 -0.21098,-1.7704 -0.26919,-0.268456 -0.74045,-0.450565 -1.16199,-0.445053 z"
     id="path33220"
     inkscape:label="dotted2" /><path
     style="fill:#98b6e0;fill-opacity:0.7;stroke:none;stroke-width:0.279257;stroke-dasharray:none;stop-color:#000000"
     d="m -589.44659,-74.872608 c -0.38627,0.0067 -0.78942,0.136462 -1.00786,0.38184 -0.42055,0.472393 -0.34702,1.457575 0.11054,1.894223 0.91719,0.875278 1.87635,1.789507 2.65733,2.534377 0.43007,0.410201 1.36311,0.100795 1.7476,-0.352401 0.39351,-0.463848 0.52439,-1.425534 0.0644,-1.823515 -0.828,-0.716285 -1.39572,-1.206802 -2.72776,-2.359762 -0.17576,-0.190739 -0.50339,-0.280666 -0.84421,-0.274762 z"
     id="path33222"
     inkscape:label="dotted1" /></g><g
   id="g422"
   inkscape:label="sat2"><path
   style="fill:url(#linearGradient2665);fill-opacity:1;stroke-width:0.375964;stop-color:#000000"
   d="m -622.13718,-37.067759 -2.5634,1.634901 8.62827,12.154614 2.43073,-1.685457 z"
   id="path553"
   sodipodi:nodetypes="ccccc" /><path
   style="fill:url(#linearGradient2641);fill-opacity:1;stroke-width:0.37589;stop-color:#000000"
   d="m -619.63468,-33.39511 2.56827,-4.699779 6.31749,9.074683 -5.44213,0.417232 z"
   id="path555"
   sodipodi:nodetypes="ccccc" /><path
   style="fill:url(#linearGradient2657);fill-opacity:1;stroke-width:0.569746;stop-color:#000000"
   d="m -617.59115,-21.684245 -3.25694,3.259022 16.74941,15.155924 3.04407,-3.2903445 z"
   id="path553-8"
   sodipodi:nodetypes="ccccc" /><path
   style="fill:url(#linearGradient2649);fill-opacity:1;stroke-width:0.569634;stop-color:#000000"
   d="m -612.68494,-17.07043 2.25973,-7.795314 12.32109,11.356247 -7.91526,2.400812 z"
   id="path555-1"
   sodipodi:nodetypes="ccccc" />
	 	<animateTransform
   attributeName="transform"
   type="rotate"
   from="0 -573.89396,-58.008145"
   to="360 -573.89396,-58.008145"
   dur="10s"
   repeatCount="indefinite" /></g><g
   id="g406"
   inkscape:label="sat1"><path
   style="fill:url(#linearGradient2681);fill-opacity:1;stroke-width:0.375964;stop-color:#000000"
   d="m -527.6239,-83.430887 2.41362,-1.848882 -9.63964,-11.36921 -2.2771,1.887864 z"
   id="path553-7"
   sodipodi:nodetypes="ccccc" /><path
   style="fill:url(#linearGradient2673);fill-opacity:1;stroke-width:0.37589;stop-color:#000000"
   d="m -530.43238,-86.875198 -2.15542,4.902868 -7.07304,-8.498976 5.38623,-0.882783 z"
   id="path555-2"
   sodipodi:nodetypes="ccccc" /><path
   style="fill:url(#linearGradient2697);fill-opacity:1;stroke-width:0.5032;stop-color:#000000"
   d="m -535.49159,-97.565712 2.61886,-3.114638 -15.88735,-12.06664 -2.42919,3.12605 z"
   id="path553-8-2"
   sodipodi:nodetypes="ccccc" /><path
   style="fill:url(#linearGradient2689);fill-opacity:1;stroke-width:0.503101;stop-color:#000000"
   d="m -540.15852,-101.25369 -1.3975,7.030713 -11.70268,-9.058843 6.78296,-2.71258 z"
   id="path555-1-2"
   sodipodi:nodetypes="ccccc" />
	 	<animateTransform
   attributeName="transform"
   type="rotate"
   from="0 -573.89396,-58.008145"
   to="360 -573.89396,-58.008145"
   dur="10s"
   repeatCount="indefinite" /></g></g></svg>
