<?xml version="1.0" encoding="UTF-8" standalone="no"?><svg xmlns="http://www.w3.org/2000/svg" xmlns:xlink="http://www.w3.org/1999/xlink" contentScriptType="application/ecmascript" contentStyleType="text/css" height="450px" preserveAspectRatio="none" style="width:636px;height:450px;" version="1.1" viewBox="0 0 636 450" width="636px" zoomAndPan="magnify"><defs><filter height="300%" id="f1rqxl6x67vm7h" width="300%" x="-1" y="-1"><feGaussianBlur result="blurOut" stdDeviation="2.0"/><feColorMatrix in="blurOut" result="blurOut2" type="matrix" values="0 0 0 0 0 0 0 0 0 0 0 0 0 0 0 0 0 0 .4 0"/><feOffset dx="4.0" dy="4.0" in="blurOut2" result="blurOut3"/><feBlend in="SourceGraphic" in2="blurOut3" mode="normal"/></filter></defs><g><!--cluster Input Data--><rect fill="#FFFFFF" filter="url(#f1rqxl6x67vm7h)" height="87" style="stroke: #000000; stroke-width: 1.5;" width="603" x="22" y="24"/><text fill="#000000" font-family="sans-serif" font-size="14" font-weight="bold" lengthAdjust="spacingAndGlyphs" textLength="80" x="283.5" y="38.9951">Input Data</text><!--cluster Output Data--><rect fill="#FFFFFF" filter="url(#f1rqxl6x67vm7h)" height="81" style="stroke: #000000; stroke-width: 1.5;" width="375" x="211" y="358"/><text fill="#000000" font-family="sans-serif" font-size="14" font-weight="bold" lengthAdjust="spacingAndGlyphs" textLength="94" x="351.5" y="372.9951">Output Data</text><ellipse cx="105.9975" cy="76.8995" fill="#FEFECE" filter="url(#f1rqxl6x67vm7h)" rx="67.4975" ry="15.8995" style="stroke: #A80036; stroke-width: 1.5;"/><text fill="#000000" font-family="sans-serif" font-size="14" lengthAdjust="spacingAndGlyphs" textLength="100" x="55.9975" y="81.5479">Stereo Images</text><ellipse cx="287.0262" cy="77.0052" fill="#FEFECE" filter="url(#f1rqxl6x67vm7h)" rx="78.0262" ry="18.0052" style="stroke: #A80036; stroke-width: 1.5;"/><text fill="#000000" font-family="sans-serif" font-size="14" lengthAdjust="spacingAndGlyphs" textLength="126" x="224.0262" y="81.6537">Geometric Models</text><ellipse cx="434.1127" cy="77.0236" fill="#FEFECE" filter="url(#f1rqxl6x67vm7h)" rx="34.1127" ry="14.5236" style="stroke: #A80036; stroke-width: 1.5;"/><text fill="#000000" font-family="sans-serif" font-size="14" lengthAdjust="spacingAndGlyphs" textLength="44" x="412.1127" y="81.6721">Masks</text><ellipse cx="556.2046" cy="77.0236" fill="#FEFECE" filter="url(#f1rqxl6x67vm7h)" rx="53.2046" ry="14.5236" style="stroke: #A80036; stroke-width: 1.5;"/><text fill="#000000" font-family="sans-serif" font-size="14" lengthAdjust="spacingAndGlyphs" textLength="71" x="520.7046" y="81.6721">Input DEM</text><ellipse cx="263.0269" cy="408.0236" fill="#FEFECE" filter="url(#f1rqxl6x67vm7h)" rx="35.5269" ry="14.5236" style="stroke: #A80036; stroke-width: 1.5;"/><text fill="#000000" font-family="sans-serif" font-size="14" lengthAdjust="spacingAndGlyphs" textLength="46" x="240.0269" y="412.6721">dsm.tif</text><ellipse cx="371.8553" cy="408.0236" fill="#FEFECE" filter="url(#f1rqxl6x67vm7h)" rx="38.3553" ry="14.5236" style="stroke: #A80036; stroke-width: 1.5;"/><text fill="#000000" font-family="sans-serif" font-size="14" lengthAdjust="spacingAndGlyphs" textLength="50" x="346.8553" y="412.6721">color.tif</text><ellipse cx="508.2362" cy="407.8472" fill="#FEFECE" filter="url(#f1rqxl6x67vm7h)" rx="62.2362" ry="14.8472" style="stroke: #A80036; stroke-width: 1.5;"/><text fill="#000000" font-family="sans-serif" font-size="14" lengthAdjust="spacingAndGlyphs" textLength="86" x="465.2362" y="412.4957">Output stats</text><ellipse cx="359.7526" cy="174.8505" fill="#FF0000" filter="url(#f1rqxl6x67vm7h)" rx="72.2526" ry="16.8505" style="stroke: #A80036; stroke-width: 1.5;"/><text fill="#000000" font-family="sans-serif" font-size="14" lengthAdjust="spacingAndGlyphs" textLength="112" x="303.7526" y="179.499">Prepare pipeline</text><ellipse cx="371.8318" cy="289.8664" fill="#FF0000" filter="url(#f1rqxl6x67vm7h)" rx="92.3318" ry="20.8664" style="stroke: #A80036; stroke-width: 1.5;"/><text fill="#000000" font-family="sans-serif" font-size="14" lengthAdjust="spacingAndGlyphs" textLength="159" x="292.3318" y="294.5148">Compute_dsm pipeline</text><!--link img to cars_prepare--><path d="M132.72,91.83 C149.5,100.24 171.73,110.89 192,119 C231.51,134.81 277.52,149.63 311.39,159.9 " fill="none" id="img-cars_prepare" style="stroke: #A80036; stroke-width: 1.0;"/><polygon fill="#A80036" points="316.29,161.38,308.8277,154.9523,311.5028,159.9367,306.5185,162.6118,316.29,161.38" style="stroke: #A80036; stroke-width: 1.0;"/><!--link geom to cars_prepare--><path d="M300.05,95.16 C312.53,111.57 331.34,136.31 344.56,153.69 " fill="none" id="geom-cars_prepare" style="stroke: #A80036; stroke-width: 1.0;"/><polygon fill="#A80036" points="347.79,157.94,345.5298,148.354,344.7649,153.9589,339.16,153.1941,347.79,157.94" style="stroke: #A80036; stroke-width: 1.0;"/><!--link masks to cars_prepare--><path d="M424.02,90.95 C411.55,107.12 390.08,134.98 375.47,153.93 " fill="none" id="masks-cars_prepare" style="stroke: #A80036; stroke-width: 1.0; stroke-dasharray: 7.0,7.0;"/><polygon fill="#A80036" points="372.28,158.07,380.9477,153.3933,375.3368,154.1133,374.6169,148.5024,372.28,158.07" style="stroke: #A80036; stroke-width: 1.0;"/><!--link dem to cars_prepare--><path d="M536.13,90.48 C522.31,98.96 503.32,110.19 486,119 C457.78,133.36 424.97,147.61 399.91,158 " fill="none" id="dem-cars_prepare" style="stroke: #A80036; stroke-width: 1.0; stroke-dasharray: 7.0,7.0;"/><polygon fill="#A80036" points="395.01,160.03,404.8555,160.2867,399.6304,158.1191,401.798,152.894,395.01,160.03" style="stroke: #A80036; stroke-width: 1.0;"/><!--link cars_prepare to cars_prepare--><path d="M422.67,166.41 C447.12,166.01 467.5,168.87 467.5,175 C467.5,180.7 449.89,183.58 427.76,183.62 " fill="none" id="cars_prepare-cars_prepare" style="stroke: #A80036; stroke-width: 1.0; stroke-dasharray: 7.0,7.0;"/><polygon fill="#A80036" points="422.67,183.59,431.647,187.6414,427.6699,183.6186,431.6927,179.6415,422.67,183.59" style="stroke: #A80036; stroke-width: 1.0;"/><text fill="#000000" font-family="sans-serif" font-size="13" lengthAdjust="spacingAndGlyphs" textLength="48" x="473.5" y="179.5669">X times</text><!--link cars_prepare to cars_compute--><path d="M332.25,190.89 C314.2,202.71 295.63,220.31 305,239 C310.8,250.57 320.69,260.14 331.11,267.71 " fill="none" id="cars_prepare-cars_compute" style="stroke: #A80036; stroke-width: 1.0;"/><polygon fill="#A80036" points="335.28,270.62,330.183,262.1926,331.1778,267.7613,325.6091,268.7561,335.28,270.62" style="stroke: #A80036; stroke-width: 1.0;"/><text fill="#000000" font-family="sans-serif" font-size="13" lengthAdjust="spacingAndGlyphs" textLength="87" x="306" y="235.0669">content1.json</text><!--link cars_prepare to cars_compute--><path d="M377.62,191.66 C385.47,199.83 393.86,210.5 398,222 C403.11,236.22 397.57,251.98 390.31,264.65 " fill="none" id="cars_prepare-cars_compute" style="stroke: #A80036; stroke-width: 1.0; stroke-dasharray: 7.0,7.0;"/><polygon fill="#A80036" points="387.57,269.16,395.6443,263.5203,390.153,264.8788,388.7944,259.3875,387.57,269.16" style="stroke: #A80036; stroke-width: 1.0;"/><text fill="#000000" font-family="sans-serif" font-size="13" lengthAdjust="spacingAndGlyphs" textLength="198" x="400" y="235.0669">content2.json, ... contentX.json</text><!--link cars_compute to dsm--><path d="M353.28,310.62 C342.38,322.08 328.38,336.83 316,350 C303.2,363.63 288.75,379.17 278.18,390.58 " fill="none" id="cars_compute-dsm" style="stroke: #A80036; stroke-width: 1.0;"/><polygon fill="#A80036" points="274.75,394.29,283.8,390.4045,278.1473,390.6215,277.9304,384.9688,274.75,394.29" style="stroke: #A80036; stroke-width: 1.0;"/><!--link cars_compute to color--><path d="M372,311.21 C372,332.87 372,366.99 372,388.12 " fill="none" id="cars_compute-color" style="stroke: #A80036; stroke-width: 1.0;"/><polygon fill="#A80036" points="372,393.2,376,384.2,372,388.2,368,384.2,372,393.2" style="stroke: #A80036; stroke-width: 1.0;"/><!--link cars_compute to output_stats--><path d="M394.76,310.42 C420.89,332.7 463.32,368.89 488.16,390.07 " fill="none" id="cars_compute-output_stats" style="stroke: #A80036; stroke-width: 1.0;"/><polygon fill="#A80036" points="491.98,393.34,487.7334,384.4537,488.1777,390.0931,482.5383,390.5374,491.98,393.34" style="stroke: #A80036; stroke-width: 1.0;"/><!--
@startuml 

rectangle "Input Data" {
(Stereo Images) as img
(Geometric Models) as geom
(Masks) as masks
(Input DEM) as dem
}
(Prepare pipeline) as cars_prepare #red
(Compute_dsm pipeline) as cars_compute #red
rectangle "Output Data" {
(dsm.tif) as dsm
(color.tif) as color
(Output stats) as output_stats
}

img - -> cars_prepare
geom - -> cars_prepare
masks ..> cars_prepare
dem ..> cars_prepare
cars_prepare ..> cars_prepare : X times
cars_prepare - -> cars_compute : content1.json
cars_prepare ..> cars_compute : content2.json, ... contentX.json
cars_compute - -> dsm
cars_compute - -> color
cars_compute - -> output_stats

@enduml

PlantUML version 1.2018.13(Mon Nov 26 18:11:51 CET 2018)
(GPL source distribution)
Java Runtime: OpenJDK Runtime Environment
JVM: OpenJDK 64-Bit Server VM
Java Version: 11.0.11+9-Ubuntu-0ubuntu2.20.04
Operating System: Linux
OS Version: 5.4.0-80-generic
Default Encoding: UTF-8
Language: fr
Country: FR
--></g></svg>